<svg xmlns="http://www.w3.org/2000/svg" viewBox="0 0 263.36 263.36"><defs><style>.cls-1{fill:#fff;stroke:#231f20;stroke-linejoin:round;stroke-width:0.25px;}.cls-2{fill:#231f20;}.cls-3{fill:none;}</style></defs><title>utvlogo-bw-svg</title><g id="Layer_2" data-name="Layer 2"><g id="Layer_1-2" data-name="Layer 1"><rect class="cls-1" x="0.13" y="0.13" width="263.11" height="263.11"/><path class="cls-2" d="M182.28,124.34v23.4q0,31.2-11.2,45.21t-36.4,14a75.31,75.31,0,0,1-22.4-3,35.69,35.69,0,0,1-16-10q-6.41-7-9.4-18.41t-3-27.8V124a175.51,175.51,0,0,1-54.8-27.09v61.67q0,97.2,106.4,97.21a129.71,129.71,0,0,0,40.4-6,77.19,77.19,0,0,0,31.2-18.8q12.79-12.81,20-32.41t7.2-46.8V99.8A175.22,175.22,0,0,1,182.28,124.34Z"/><path class="cls-3" d="M82.61,66.52a49.11,49.11,0,0,1,27.34-44A166.38,166.38,0,0,0,17,66.52a166,166,0,0,0,93.27,44.15A49.11,49.11,0,0,1,82.61,66.52Z"/><path class="cls-3" d="M173.76,66.52a42.08,42.08,0,1,0-42.08,42.07A42.13,42.13,0,0,0,173.76,66.52ZM131.68,96.08a29.56,29.56,0,0,1,0-59.12,29.86,29.86,0,0,1,6.39.69A10.45,10.45,0,0,0,155.56,49.1a29.55,29.55,0,0,1-23.88,47Z"/><path class="cls-3" d="M180.76,66.52a49.13,49.13,0,0,1-27.67,44.15,166,166,0,0,0,93.26-44.15,166.35,166.35,0,0,0-92.93-44A49.12,49.12,0,0,1,180.76,66.52Z"/><path class="cls-2" d="M257.07,63A177.24,177.24,0,0,0,6.3,63a5,5,0,0,0,0,7.07,176.15,176.15,0,0,0,125.38,52,176.19,176.19,0,0,0,125.39-52,5,5,0,0,0,0-7.07ZM17,66.52a166.38,166.38,0,0,1,92.94-44,49.05,49.05,0,0,0,.33,88.13A166,166,0,0,1,17,66.52Zm72.6,0a42.08,42.08,0,1,1,42.07,42.07A42.12,42.12,0,0,1,89.61,66.52Zm63.48,44.15a49.05,49.05,0,0,0,.33-88.13,166.35,166.35,0,0,1,92.93,44A166,166,0,0,1,153.09,110.67Z"/><path class="cls-2" d="M146.86,53.76a10.44,10.44,0,0,1-8.79-16.11,29.86,29.86,0,0,0-6.39-.69A29.58,29.58,0,1,0,155.56,49.1,10.43,10.43,0,0,1,146.86,53.76Z"/></g></g></svg>